HIERARCHY
ROOT Hips
{
	OFFSET -0.001795 -0.223333 0.028219
	CHANNELS 6 Xposition Yposition Zposition Zrotation Yrotation Xrotation 
	JOINT LeftUpLeg
	{
		OFFSET 0.069520 -0.091406 -0.006815
		CHANNELS 3 Zrotation Yrotation Xrotation
		JOINT LeftLeg
		{
			OFFSET 0.034277 -0.375199 -0.004496
			CHANNELS 3 Zrotation Yrotation Xrotation
			JOINT LeftFoot
			{
				OFFSET -0.013596 -0.397961 -0.043693
				CHANNELS 3 Zrotation Yrotation Xrotation
				JOINT LeftToe
				{
					OFFSET 0.026358 -0.055791 0.119288
					CHANNELS 3 Zrotation Yrotation Xrotation
					End Site
					{
						OFFSET 0.000000 0.000000 0.000000
					}
				}
			}
		}
	}
	JOINT RightUpLeg
	{
		OFFSET -0.067670 -0.090522 -0.004320
		CHANNELS 3 Zrotation Yrotation Xrotation
		JOINT RightLeg
		{
			OFFSET -0.038290 -0.382569 -0.008850
			CHANNELS 3 Zrotation Yrotation Xrotation
			JOINT RightFoot
			{
				OFFSET 0.015774 -0.398415 -0.042312
				CHANNELS 3 Zrotation Yrotation Xrotation
				JOINT RightToe
				{
					OFFSET -0.025372 -0.048144 0.123348
					CHANNELS 3 Zrotation Yrotation Xrotation
					End Site
					{
						OFFSET 0.000000 0.000000 0.000000
					}
				}
			}
		}
	}
	JOINT Spine
	{
		OFFSET -0.002533 0.108963 -0.026696
		CHANNELS 3 Zrotation Yrotation Xrotation
		JOINT Spine1
		{
			OFFSET 0.005487 0.135180 0.001092
			CHANNELS 3 Zrotation Yrotation Xrotation
			JOINT Spine2
			{
				OFFSET 0.001457 0.052922 0.025425
				CHANNELS 3 Zrotation Yrotation Xrotation
				JOINT Neck
				{
					OFFSET -0.002778 0.213870 -0.042857
					CHANNELS 3 Zrotation Yrotation Xrotation
					JOINT Head
					{
						OFFSET 0.005152 0.064970 0.051349
						CHANNELS 3 Zrotation Yrotation Xrotation
						End Site
						{
							OFFSET 0.000000 0.000000 0.000000
						}
					}
				}
				JOINT LeftShoulder
				{
					OFFSET 0.078845 0.121749 -0.034090
					CHANNELS 3 Zrotation Yrotation Xrotation
					JOINT LeftArm
					{
						OFFSET 0.090977 0.030469 -0.008868
						CHANNELS 3 Zrotation Yrotation Xrotation
						JOINT LeftForeArm
						{
							OFFSET 0.259612 -0.012772 -0.027456
							CHANNELS 3 Zrotation Yrotation Xrotation
							JOINT LeftHand
							{
								OFFSET 0.249234 0.008986 -0.001171
								CHANNELS 3 Zrotation Yrotation Xrotation
								End Site
								{
									OFFSET 0.000000 0.000000 0.000000
								}
							}
						}
					}
				}
				JOINT RightShoulder
				{
					OFFSET -0.081759 0.118833 -0.038615
					CHANNELS 3 Zrotation Yrotation Xrotation
					JOINT RightArm
					{
						OFFSET -0.096012 0.032551 -0.009143
						CHANNELS 3 Zrotation Yrotation Xrotation
						JOINT RightForeArm
						{
							OFFSET -0.253742 -0.013329 -0.021401
							CHANNELS 3 Zrotation Yrotation Xrotation
							JOINT RightHand
							{
								OFFSET -0.255298 0.007772 -0.005559
								CHANNELS 3 Zrotation Yrotation Xrotation
								End Site
								{
									OFFSET 0.000000 0.000000 0.000000
								}
							}
						}
					}
				}
			}
		}
	}
}
MOTION
Frames: 16
Frame Time: 0.050000
0.000000 0.909978 0.000000 -0.183320 -39.403454 -3.554429 -3.309038 -0.838165 -22.429908 -6.365647 5.100207 23.293530 10.333091 17.530800 12.280356 0.000000 0.000000 0.000000 -1.124185 1.091566 -10.498512 19.746989 4.528156 62.954709 -12.725991 -27.991809 11.932350 0.000000 0.000000 0.000000 3.617130 -0.402527 10.129383 -2.812295 0.595333 -25.807095 0.028549 17.784677 30.823120 6.076538 -3.895581 -20.590092 0.000000 0.000000 0.000000 -15.219843 -2.613383 2.644305 -58.575023 -8.774120 -5.626781 -2.943859 -33.725923 3.698678 0.000000 0.000000 0.000000 18.878022 -2.325353 -4.551907 64.791358 -2.436268 -11.178234 13.921853 43.514304 6.924767 0.000000 0.000000 0.000000 
-0.017351 0.917303 0.025287 -2.048936 -36.380457 -3.280651 -3.859465 -1.251918 -18.748388 -3.396340 3.286913 22.241400 7.727328 14.188993 8.543737 0.000000 0.000000 0.000000 -0.743828 1.942620 -15.822402 22.961105 1.534404 64.259735 -12.293861 -27.822360 11.186537 0.000000 0.000000 0.000000 2.097887 -0.305682 10.807043 -1.954989 0.375799 -24.636760 -0.091969 15.883569 30.216230 4.670473 -2.834571 -20.882712 0.000000 0.000000 0.000000 -12.026888 -2.434224 2.102959 -58.722433 -7.884724 -5.774040 -9.520331 -39.668463 7.072508 0.000000 0.000000 0.000000 20.889457 -1.568897 -4.458801 61.157017 -2.071633 -9.960849 12.779339 42.282783 6.198571 0.000000 0.000000 0.000000 
-0.032675 0.931635 0.045393 -3.175642 -29.814948 -2.494153 -2.569321 -1.207690 -15.670039 -3.973534 2.857102 21.903035 6.156145 12.447236 4.536774 0.000000 0.000000 0.000000 0.556646 2.704367 -19.528990 17.859529 1.415988 58.598661 -10.532942 -25.295200 11.245077 0.000000 0.000000 0.000000 2.433671 -0.404580 10.881516 -1.144395 0.330265 -24.707086 -1.338851 13.757047 30.657858 3.479656 -1.729695 -20.400891 0.000000 0.000000 0.000000 -12.208945 -3.320382 2.176392 -56.360461 -10.357342 -4.752973 -11.016482 -42.595616 8.040895 0.000000 0.000000 0.000000 20.421513 -1.918831 -3.793184 60.560377 -1.558720 -9.762573 11.559726 40.509511 5.858611 0.000000 0.000000 0.000000 
-0.046001 0.937821 0.061598 -5.048497 -26.391717 -0.354360 -0.506710 -0.934030 -16.031446 -5.447768 3.079674 21.713595 4.737276 9.752183 6.114316 0.000000 0.000000 0.000000 1.461058 3.099378 -21.158972 12.058344 2.305300 49.682415 -6.447779 -16.905143 3.559084 0.000000 0.000000 0.000000 3.575790 -0.544132 10.100168 -0.334846 0.223608 -24.774989 -1.401386 12.526845 30.684965 2.148518 -0.840964 -17.619315 0.000000 0.000000 0.000000 -9.842104 -2.786552 1.607025 -60.009439 -11.150448 -4.208585 -9.667821 -44.768157 7.998538 0.000000 0.000000 0.000000 19.362814 -2.909870 -3.864953 62.103331 -2.491809 -10.528113 12.088490 41.059653 6.321390 0.000000 0.000000 0.000000 
-0.058885 0.943527 0.075937 -5.337773 -19.854089 0.042641 -0.177910 -0.996031 -14.512370 -5.257775 2.409347 21.504461 2.766407 6.201245 3.129573 0.000000 0.000000 0.000000 0.243065 2.895602 -21.757410 6.670911 2.277487 41.439247 -3.589019 -9.877027 1.681048 0.000000 0.000000 0.000000 2.812963 -0.546139 10.326291 0.697905 0.149426 -25.223359 -1.178233 10.656726 31.122774 1.706371 -0.147704 -18.482915 0.000000 0.000000 0.000000 -9.069952 -2.919892 1.313349 -62.685697 -11.623559 -4.081168 -9.765337 -46.225447 8.111144 0.000000 0.000000 0.000000 20.036874 -2.745287 -3.208927 60.422507 -2.586399 -10.259500 10.922915 40.628570 6.121645 0.000000 0.000000 0.000000 
-0.070111 0.944633 0.089258 -4.784761 -11.765104 -0.112147 -0.442456 -1.097067 -13.105140 -4.839649 1.541785 20.729477 1.499716 3.716651 2.085847 0.000000 0.000000 0.000000 -1.674197 2.391818 -21.933501 4.498849 1.381721 37.232933 -2.982775 -10.006201 5.984925 0.000000 0.000000 0.000000 2.317027 -0.580479 10.600116 0.853332 0.226156 -25.007512 -1.600585 9.856897 30.744145 2.357847 0.217253 -19.993763 0.000000 0.000000 0.000000 -10.458214 -2.658576 0.549333 -62.644743 -12.797285 -3.813794 -11.169590 -45.549472 7.863955 0.000000 0.000000 0.000000 19.858177 -4.904311 -3.194149 61.656757 -4.289457 -11.200312 11.797451 40.579347 7.067861 0.000000 0.000000 0.000000 
-0.080920 0.943687 0.101416 -4.052789 -4.199787 -0.249565 -0.488126 -1.071325 -11.662452 -5.450994 1.132284 19.305360 1.252708 3.061291 1.111456 0.000000 0.000000 0.000000 -2.205629 1.970323 -21.436401 5.389985 -0.201046 38.458782 -5.352565 -14.969384 9.038202 0.000000 0.000000 0.000000 2.147057 -0.680822 11.581429 0.316853 0.492640 -25.363539 -1.725295 8.732301 30.538967 2.367008 0.795558 -20.030591 0.000000 0.000000 0.000000 -12.751569 -3.205379 -0.015128 -61.103603 -11.680876 -4.536235 -11.229184 -44.071444 6.895901 0.000000 0.000000 0.000000 19.898083 -5.548158 -2.578933 63.010002 -3.161639 -10.698113 9.654988 39.859915 6.665256 0.000000 0.000000 0.000000 
-0.090808 0.942048 0.111684 -3.144237 1.237983 -0.654182 -0.660391 -1.023301 -10.615120 -5.298748 0.743002 19.304174 -0.408698 -0.984421 -0.214073 0.000000 0.000000 0.000000 -3.024767 1.671545 -22.319203 5.763357 -1.455055 42.669752 -7.034657 -17.826284 10.431575 0.000000 0.000000 0.000000 1.551898 -0.680784 11.785279 -0.066823 0.651603 -24.386468 -1.931456 8.905997 30.231649 1.719093 1.808467 -20.030681 0.000000 0.000000 0.000000 -13.469288 -2.765767 -1.071675 -60.012749 -10.310404 -5.136854 -12.027466 -41.993484 6.145211 0.000000 0.000000 0.000000 19.820512 -4.892682 -1.292011 63.424193 -0.359378 -9.087452 7.264566 36.097018 5.386883 0.000000 0.000000 0.000000 
-0.099674 0.942190 0.120805 -3.036404 6.063684 -0.884082 -0.810200 -0.988259 -10.026290 -4.422612 0.238292 18.338877 -1.251603 -2.469990 0.346277 0.000000 0.000000 0.000000 -3.225943 1.399134 -22.341874 5.013059 -2.291516 45.380210 -6.683926 -16.798407 10.530295 0.000000 0.000000 0.000000 1.466174 -0.764689 12.376035 -0.204616 0.770622 -24.472326 -1.692530 8.676363 29.657509 1.291288 2.487733 -19.702815 0.000000 0.000000 0.000000 -14.574541 -3.163488 -1.746072 -59.776428 -8.769667 -5.705854 -9.214726 -38.972266 4.190795 0.000000 0.000000 0.000000 19.671368 -3.897052 -0.027939 63.388616 1.044450 -8.159943 5.885765 33.357114 4.554193 0.000000 0.000000 0.000000 
-0.107956 0.943090 0.129425 -2.780789 11.469796 0.264375 -0.222040 -1.114339 -11.419138 -4.436965 -0.081981 19.345426 -1.510882 -3.741345 -0.692153 0.000000 0.000000 0.000000 -3.363676 1.127047 -23.938099 3.267097 -2.614036 45.359705 -4.880002 -12.697006 7.564358 0.000000 0.000000 0.000000 1.577429 -0.759506 11.296416 -0.477011 0.929231 -24.114337 -1.533395 7.437594 28.878215 -0.825146 4.227205 -20.817347 0.000000 0.000000 0.000000 -15.000019 -2.782766 -2.604592 -60.546400 -5.898513 -7.084511 -6.990953 -37.117277 2.890638 0.000000 0.000000 0.000000 18.923594 -3.545067 0.632493 64.688509 1.474003 -7.621438 4.608206 32.420156 4.105793 0.000000 0.000000 0.000000 
-0.115849 0.945912 0.137808 -2.857620 16.932551 0.586570 -0.006366 -1.175999 -11.894764 -3.630538 -0.587307 19.603014 -1.547531 -4.342633 -1.254101 0.000000 0.000000 0.000000 -3.131419 0.831562 -23.725907 0.971473 -2.260593 42.075594 -3.693902 -9.535992 4.584764 0.000000 0.000000 0.000000 1.721216 -0.795090 10.917039 -0.774026 1.097500 -23.918597 -1.191483 6.569662 28.732849 -2.138668 5.373017 -20.480597 0.000000 0.000000 0.000000 -14.860302 -2.193043 -3.531005 -60.571180 -4.669871 -7.669416 -5.339819 -34.009626 1.807282 0.000000 0.000000 0.000000 18.241653 -3.720082 1.087443 65.605079 2.574506 -6.718088 2.017823 31.318124 3.369019 0.000000 0.000000 0.000000 
-0.123768 0.946820 0.146769 -2.353372 23.344943 0.831275 0.493931 -1.184237 -11.986898 -3.088574 -0.972249 19.024420 -2.407725 -6.733585 -1.572159 0.000000 0.000000 0.000000 -2.569301 0.588550 -21.824417 -3.698462 -0.485134 36.011011 -0.615394 -2.013485 2.793281 0.000000 0.000000 0.000000 1.137777 -0.765585 10.737103 -0.316496 1.123952 -23.254209 -1.094845 5.639748 28.239717 -2.306897 5.908900 -20.858159 0.000000 0.000000 0.000000 -15.223981 -1.949550 -4.610144 -59.227181 -3.205098 -7.930011 -4.573297 -31.157774 1.077801 0.000000 0.000000 0.000000 17.681135 -4.435781 1.274402 65.069806 3.537763 -5.799299 0.716661 30.663966 3.056793 0.000000 0.000000 0.000000 
-0.132186 0.945245 0.156128 -2.417160 31.481783 0.222818 1.069837 -1.237456 -12.357262 -1.488736 -1.652079 18.973914 -4.295364 -11.540303 -1.657630 0.000000 0.000000 0.000000 -2.758742 0.176964 -19.251373 -4.632238 -0.696468 30.793337 1.657065 3.447595 1.975378 0.000000 0.000000 0.000000 1.159131 -0.874042 11.159601 -0.418237 1.305621 -23.349338 -1.120729 4.016175 28.337772 -1.105329 5.537670 -19.338494 0.000000 0.000000 0.000000 -16.032867 -2.253052 -5.766139 -56.982565 -1.505142 -7.975933 -5.060440 -30.916329 0.779294 0.000000 0.000000 0.000000 18.757341 -5.092005 1.951060 63.386011 3.387715 -6.017780 0.257766 30.450359 3.031218 0.000000 0.000000 0.000000 
-0.141284 0.941706 0.166344 -1.406228 37.019281 0.517807 1.918199 -1.244202 -12.412529 -1.211888 -1.772792 18.123418 -6.021526 -15.091521 -1.007928 0.000000 0.000000 0.000000 -3.438574 -0.148780 -17.010882 -6.398519 -0.189137 27.136026 3.412638 7.363066 1.320840 0.000000 0.000000 0.000000 0.438566 -0.815344 10.997087 -0.628741 1.480143 -22.834435 -0.688854 4.324681 28.274320 -0.359973 5.603207 -19.372008 0.000000 0.000000 0.000000 -16.148818 -3.046113 -6.595802 -55.214650 -0.389865 -7.764897 -5.302825 -29.672405 0.425310 0.000000 0.000000 0.000000 19.314860 -5.823324 2.551524 62.376760 3.748115 -5.823969 -0.106003 30.461242 3.033496 0.000000 0.000000 0.000000 
-0.152170 0.938624 0.176473 -0.672123 41.843731 1.149328 1.967358 -1.458108 -13.696361 0.177299 -2.252646 18.421578 -7.680833 -19.073364 -0.620619 0.000000 0.000000 0.000000 -4.017240 -0.427196 -15.490121 -7.402654 -0.152504 25.673775 4.964664 10.615365 0.337860 0.000000 0.000000 0.000000 0.169550 -0.812820 10.942602 -1.096056 1.705398 -22.059670 -0.335327 4.624626 27.667117 0.957218 5.101177 -18.601544 0.000000 0.000000 0.000000 -16.114129 -4.071840 -7.064355 -53.679624 0.611994 -7.625736 -6.006455 -29.641900 0.301212 0.000000 0.000000 0.000000 18.920523 -5.207962 3.553415 62.237296 3.679092 -5.569274 0.412745 29.835010 2.955279 0.000000 0.000000 0.000000 
-0.165521 0.936262 0.186563 -0.093138 45.925147 1.725834 2.371503 -1.720179 -15.174209 0.439668 -2.430559 18.447480 -8.554474 -20.297304 0.221566 0.000000 0.000000 0.000000 -4.292971 -0.614702 -14.425906 -6.389010 -0.626826 23.872338 5.650485 11.871235 -0.843503 0.000000 0.000000 0.000000 0.108005 -0.871597 11.202175 -1.483074 1.884576 -21.123626 0.242212 5.664967 26.475453 0.906629 5.455778 -18.292792 0.000000 0.000000 0.000000 -16.277201 -4.536960 -8.008178 -52.916975 2.160579 -7.733410 -5.936670 -29.984276 -0.075326 0.000000 0.000000 0.000000 18.508550 -5.021133 4.229526 61.404919 4.106457 -5.015119 0.594424 29.757781 2.896752 0.000000 0.000000 0.000000 
